<svg width="3936" height="2392" viewBox="0 0 3936 2392" fill="none" xmlns="http://www.w3.org/2000/svg">
<g clip-path="url(#clip0)">
<rect width="3936" height="2392" fill="white"/>
<rect width="3936" height="2392" fill="url(#paint0_linear)"/>
<path d="M1336.86 298.531L1054.11 -134.152C968.651 -75.3069 889.037 -8.45747 816.562 65.315L1193.43 418.817C1237.56 374.684 1285.59 334.444 1336.86 298.531Z" fill="url(#paint1_linear)"/>
<path d="M1067.95 568.309L654.307 258.292C594.38 342.232 542.242 432.014 498.973 526.988L974.276 730.349C1000.89 673.451 1032.26 619.149 1067.95 568.309Z" fill="url(#paint2_linear)"/>
<path d="M907.21 913.59L412.436 763.882C385.177 862.318 367.005 964.431 359 1069.57L874.975 1098.13C880.6 1034.96 891.633 973.301 907.21 913.59Z" fill="url(#paint3_linear)"/>
<path d="M874.975 1293.27L359 1321.83C367.005 1426.75 385.177 1529.08 412.436 1627.52L907.21 1477.81C891.633 1418.1 880.6 1356.44 874.975 1293.27Z" fill="url(#paint4_linear)"/>
<path d="M974.06 1661.05L498.757 1864.2C542.025 1958.95 594.164 2048.95 654.09 2132.89L1067.74 1823.09C1032.26 1772.03 1000.89 1717.95 974.06 1661.05Z" fill="url(#paint5_linear)"/>
<path d="M1193.43 1972.58L816.562 2326.09C889.037 2399.86 968.651 2466.92 1054.11 2525.55L1336.86 2092.87C1285.59 2056.96 1237.56 2016.72 1193.43 1972.58Z" fill="url(#paint6_linear)"/>
<path d="M1272.39 2651.9C1364.99 2696.25 1462.56 2731.94 1564.02 2758.12L1681.71 2254.69C1620.92 2238.25 1562.08 2216.83 1505.83 2190.65L1272.39 2651.9Z" fill="url(#paint7_linear)"/>
<path d="M1967.5 2292.34C1935.91 2292.34 1904.76 2291.04 1874.04 2288.44L1812.38 2801.6C1863.44 2806.58 1915.14 2808.96 1967.5 2808.96C2019.85 2808.96 2071.56 2806.36 2122.62 2801.6L2061.18 2288.44C2030.24 2291.04 1999.09 2292.34 1967.5 2292.34Z" fill="url(#paint8_linear)"/>
<path d="M2253.29 2254.69L2370.98 2758.12C2472.23 2731.94 2569.8 2696.25 2662.39 2651.9L2428.96 2190.65C2373.14 2216.83 2314.3 2238.47 2253.29 2254.69Z" fill="url(#paint9_linear)"/>
<path d="M2598.35 2092.87L2881.11 2525.55C2966.57 2466.71 3046.18 2399.86 3118.65 2326.09L2741.79 1972.58C2697.44 2016.72 2649.41 2056.96 2598.35 2092.87Z" fill="url(#paint10_linear)"/>
<path d="M2867.05 1823.09L3280.69 2132.89C3340.62 2048.95 3392.76 1959.17 3436.03 1864.2L2960.72 1661.05C2934.11 1717.95 2902.74 1772.03 2867.05 1823.09Z" fill="url(#paint11_linear)"/>
<path d="M3027.79 1477.59L3522.56 1627.3C3549.82 1528.87 3568 1426.75 3576 1321.61L3060.03 1293.05C3054.4 1356.44 3043.37 1418.1 3027.79 1477.59Z" fill="url(#paint12_linear)"/>
<path d="M3060.03 1098.13L3576 1069.57C3568 964.647 3549.82 862.318 3522.56 763.882L3027.79 913.59C3043.37 973.301 3054.4 1034.96 3060.03 1098.13Z" fill="url(#paint13_linear)"/>
<path d="M2960.72 730.349L3436.03 526.988C3392.76 432.23 3340.62 342.232 3280.69 258.292L2867.05 568.309C2902.74 619.149 2934.11 673.451 2960.72 730.349Z" fill="url(#paint14_linear)"/>
<path d="M2741.57 418.817L3118.44 65.315C3045.96 -8.45747 2966.35 -75.5233 2880.89 -134.152L2598.14 298.531C2649.41 334.444 2697.44 374.684 2741.57 418.817Z" fill="url(#paint15_linear)"/>
<path d="M2662.61 -260.495C2570.01 -304.845 2472.44 -340.542 2370.98 -366.719L2253.29 136.708C2314.08 153.15 2372.92 174.567 2429.17 200.745L2662.61 -260.495Z" fill="url(#paint16_linear)"/>
<path d="M1967.5 99.0641C1999.09 99.0641 2030.24 100.362 2061.18 102.958L2122.62 -410.204C2071.56 -415.18 2019.85 -417.559 1967.5 -417.559C1915.14 -417.559 1863.44 -414.964 1812.38 -410.204L1874.04 102.958C1904.76 100.362 1935.91 99.0641 1967.5 99.0641Z" fill="url(#paint17_linear)"/>
<path d="M1681.71 136.491L1564.02 -366.719C1462.78 -340.758 1365.21 -304.845 1272.39 -260.495L1505.83 200.745C1561.86 174.567 1620.7 152.933 1681.71 136.491Z" fill="url(#paint18_linear)"/>
<path d="M1887.67 421.846L1870.15 103.175C1839.21 105.987 1808.27 110.098 1777.34 115.506C1746.4 120.915 1715.68 127.621 1685.82 135.626L1778.2 441.1C1813.9 432.23 1850.46 425.74 1887.67 421.846Z" fill="url(#paint19_linear)"/>
<path d="M2047.76 421.846C2085.19 425.74 2121.53 432.23 2157.23 441.1L2249.83 135.626C2189.9 119.617 2128.24 108.583 2065.5 103.175L2047.76 421.846Z" fill="url(#paint20_linear)"/>
<path d="M2307.59 495.835C2341.12 512.06 2373.14 530.666 2403.86 551.434L2595.11 296.151C2543.83 260.455 2489.75 229.086 2433.07 202.476L2307.59 495.835Z" fill="url(#paint21_linear)"/>
<path d="M2526.31 654.413C2552.05 681.023 2576.07 709.364 2597.7 739.435L2865.1 564.848C2828.97 513.575 2788.73 465.547 2744.6 421.63L2526.31 654.413Z" fill="url(#paint22_linear)"/>
<path d="M2962.67 734.027L2677.75 878.11C2692.89 911.86 2705.66 946.691 2715.82 982.603L3026.28 910.129C3010.05 848.904 2988.63 790.059 2962.67 734.027Z" fill="url(#paint23_linear)"/>
<path d="M3060.24 1102.24L2743.52 1140.1C2744.82 1158.49 2745.46 1177.09 2745.46 1195.7C2745.46 1214.31 2744.82 1232.91 2743.52 1251.3L3060.46 1289.38C3065.65 1228.15 3065.87 1165.41 3060.24 1102.24Z" fill="url(#paint24_linear)"/>
<path d="M3026.49 1481.92L2716.04 1409.23C2705.87 1445.14 2693.11 1480.19 2677.97 1513.72L2962.46 1657.59C2988.63 1601.12 3010.05 1542.5 3026.49 1481.92Z" fill="url(#paint25_linear)"/>
<path d="M2864.67 1826.55L2597.92 1652.18C2576.07 1682.25 2552.27 1710.81 2526.31 1737.42L2744.38 1970.2C2788.52 1925.64 2828.76 1877.61 2864.67 1826.55Z" fill="url(#paint26_linear)"/>
<path d="M2594.89 2095.46L2403.86 1840.18C2373.36 1860.95 2341.12 1879.56 2307.59 1895.78L2432.85 2188.92C2489.75 2162.53 2544.05 2130.94 2594.89 2095.46Z" fill="url(#paint27_linear)"/>
<path d="M2047.33 1969.99L2064.85 2288.23C2095.57 2285.41 2126.73 2281.3 2157.66 2275.89C2188.82 2270.49 2219.32 2263.78 2249.18 2255.77L2157.02 1950.73C2121.32 1959.6 2084.76 1966.09 2047.33 1969.99Z" fill="url(#paint28_linear)"/>
<path d="M1887.24 1969.77C1849.81 1965.88 1813.25 1959.39 1777.77 1950.52L1685.39 2255.56C1745.32 2271.57 1806.97 2282.6 1869.71 2288.23L1887.24 1969.77Z" fill="url(#paint29_linear)"/>
<path d="M1627.41 1895.78C1593.88 1879.56 1561.64 1860.73 1531.14 1839.97L1340.11 2095.03C1391.38 2130.73 1445.47 2162.1 1502.15 2188.71L1627.41 1895.78Z" fill="url(#paint30_linear)"/>
<path d="M1190.4 1969.55L1408.69 1736.99C1382.95 1710.38 1358.93 1681.82 1337.3 1651.75L1070.12 1826.12C1106.03 1877.61 1146.27 1925.64 1190.4 1969.55Z" fill="url(#paint31_linear)"/>
<path d="M1257.03 1513.29C1241.89 1479.54 1229.13 1444.71 1218.96 1408.8L908.508 1481.27C924.95 1542.5 946.368 1601.34 972.329 1657.16L1257.03 1513.29Z" fill="url(#paint32_linear)"/>
<path d="M874.759 1288.94L1191.48 1251.08C1190.18 1232.91 1189.54 1214.52 1189.54 1195.92C1189.54 1177.09 1190.18 1158.49 1191.48 1139.88L874.542 1101.81C869.35 1163.25 869.134 1225.77 874.759 1288.94Z" fill="url(#paint33_linear)"/>
<path d="M908.508 909.48L1219.17 982.171C1229.34 946.258 1242.11 911.211 1257.25 877.678L972.761 733.594C946.367 790.059 924.95 848.904 908.508 909.48Z" fill="url(#paint34_linear)"/>
<path d="M1070.33 564.848L1337.3 739.435C1359.15 709.364 1382.94 681.023 1408.91 654.413L1190.62 421.63C1146.48 465.763 1106.24 513.791 1070.33 564.848Z" fill="url(#paint35_linear)"/>
<path d="M1627.84 495.835L1502.37 202.259C1445.25 229.086 1391.17 260.455 1340.33 295.935L1531.79 551.434C1562.08 530.666 1594.31 512.06 1627.84 495.835Z" fill="url(#paint36_linear)"/>
<path d="M1912.33 419.683L1941.76 666.312C1950.19 665.879 1958.63 665.663 1967.28 665.663C1976.15 665.663 1985.02 665.879 1993.89 666.312L2023.53 419.683C1986.11 417.087 1948.89 417.087 1912.33 419.683Z" fill="url(#paint37_linear)"/>
<path d="M2181.03 447.591L2124.35 689.244C2141.01 694.436 2157.45 700.278 2173.24 707.2L2285.52 485.667C2251.99 470.739 2217.16 457.975 2181.03 447.591Z" fill="url(#paint38_linear)"/>
<path d="M2327.71 807.15L2509.22 637.106C2482.83 611.361 2454.27 587.347 2424.2 565.497L2288.12 773.618C2301.75 784.218 2314.95 795.468 2327.71 807.15Z" fill="url(#paint39_linear)"/>
<path d="M2667.36 856.26C2651.14 822.943 2632.53 790.708 2611.76 759.988L2412.73 908.831C2422.03 923.326 2430.69 938.47 2438.69 953.83L2667.36 856.26Z" fill="url(#paint40_linear)"/>
<path d="M2722.31 1006.4L2484.12 1078.44C2487.8 1095.32 2491.05 1112.41 2492.99 1129.72L2741.57 1116.09C2737.89 1078.88 2731.18 1042.31 2722.31 1006.4Z" fill="url(#paint41_linear)"/>
<path d="M2733.57 1331.13C2736.81 1312.74 2739.41 1294.35 2741.35 1275.96L2492.78 1262.12C2490.61 1279.42 2487.59 1296.52 2483.69 1313.17L2721.88 1385.43C2726.64 1367.69 2730.54 1349.52 2733.57 1331.13Z" fill="url(#paint42_linear)"/>
<path d="M2611.77 1632.28C2632.53 1601.77 2651.14 1569.75 2667.37 1536.01L2438.26 1437.79C2430.47 1453.15 2421.6 1468.29 2412.3 1482.79L2611.77 1632.28Z" fill="url(#paint43_linear)"/>
<path d="M2423.55 1826.12C2453.4 1804.49 2481.96 1780.47 2508.79 1754.73L2327.06 1584.03C2314.29 1595.93 2301.1 1606.97 2287.25 1617.35L2423.55 1826.12Z" fill="url(#paint44_linear)"/>
<path d="M2123.91 1701.72L2180.6 1944.46C2216.51 1934.29 2251.34 1921.53 2285.09 1906.38L2172.59 1683.98C2156.8 1690.69 2140.57 1696.53 2123.91 1701.72Z" fill="url(#paint45_linear)"/>
<path d="M1967.28 1725.09C1958.63 1725.09 1949.98 1724.87 1941.54 1724.44L1911.68 1971.93C1949.11 1974.53 1986.32 1974.53 2022.88 1971.93L1993.25 1724.22C1984.59 1724.87 1975.94 1725.09 1967.28 1725.09Z" fill="url(#paint46_linear)"/>
<path d="M1649.48 1906.17C1683.01 1921.09 1717.84 1933.86 1753.97 1944.24L1810.65 1701.72C1793.99 1696.53 1777.77 1690.69 1761.98 1683.98L1649.48 1906.17Z" fill="url(#paint47_linear)"/>
<path d="M1607.29 1584.03L1425.56 1754.29C1451.96 1780.04 1480.52 1804.05 1510.8 1825.9L1647.1 1617.57C1633.47 1607.18 1620.06 1595.93 1607.29 1584.03Z" fill="url(#paint48_linear)"/>
<path d="M1522.05 1482.57C1512.75 1468.07 1503.88 1452.93 1495.87 1437.57L1267.2 1535.14C1283.43 1568.67 1302.03 1600.91 1322.8 1631.63L1522.05 1482.57Z" fill="url(#paint49_linear)"/>
<path d="M1212.47 1385L1450.44 1313.17C1446.77 1296.3 1443.52 1279.21 1441.57 1261.9L1193.21 1275.53C1197.11 1312.52 1203.6 1349.09 1212.47 1385Z" fill="url(#paint50_linear)"/>
<path d="M1213.12 1005.75C1208.57 1023.71 1204.68 1041.88 1201.43 1060.49C1198.19 1078.88 1195.59 1097.05 1193.65 1115.22L1441.57 1129.07C1443.74 1111.76 1446.77 1094.67 1450.66 1077.79L1213.12 1005.75Z" fill="url(#paint51_linear)"/>
<path d="M1323.45 759.122C1302.9 789.627 1284.08 821.862 1267.85 855.394L1496.09 953.181C1504.1 937.821 1512.75 922.677 1522.27 908.182L1323.45 759.122Z" fill="url(#paint52_linear)"/>
<path d="M1511.67 565.28C1481.6 587.131 1453.04 610.928 1426.21 636.673L1607.29 806.501C1620.05 794.603 1633.25 783.569 1647.31 772.968L1511.67 565.28Z" fill="url(#paint53_linear)"/>
<path d="M1754.62 447.374C1718.71 457.542 1683.88 470.306 1650.34 485.45L1762.19 706.984C1778.2 700.278 1794.43 694.22 1811.08 689.244L1754.62 447.374Z" fill="url(#paint54_linear)"/>
<path d="M1367.62 1109.48V1289H1330.08V1213.38H1250.93V1289H1213.39V1109.48H1250.93V1183.19H1330.08V1109.48H1367.62ZM1599.16 1258.81V1289H1460.71V1109.48H1595.35V1139.67H1498.25V1184.28H1574.68V1213.11H1498.25V1258.81H1599.16ZM1811.27 1258.81V1289H1679.08V1109.48H1716.61V1258.81H1811.27ZM1964.02 1109.48C1984.87 1109.48 2001.1 1114.56 2012.71 1124.71C2024.31 1134.69 2030.11 1148.83 2030.11 1167.14C2030.11 1184.91 2024.31 1198.79 2012.71 1208.76C2001.1 1218.73 1984.87 1223.72 1964.02 1223.72H1926.21V1289H1888.67V1109.48H1964.02ZM1958.31 1194.62C1969.91 1194.62 1978.43 1192.35 1983.87 1187.82C1989.31 1183.1 1992.03 1176.12 1992.03 1166.87C1992.03 1157.62 1989.31 1150.73 1983.87 1146.2C1978.43 1141.67 1969.91 1139.4 1958.31 1139.4H1926.21V1194.62H1958.31ZM2174.68 1109.48C2202.97 1109.48 2225.09 1117.28 2241.05 1132.87C2257 1148.47 2264.98 1170.59 2264.98 1199.24C2264.98 1227.89 2257 1250.01 2241.05 1265.61C2225.09 1281.2 2202.97 1289 2174.68 1289H2116.74V1109.48H2174.68ZM2176.85 1268.6C2197.34 1268.6 2213.3 1262.53 2224.73 1250.38C2236.33 1238.05 2242.13 1221 2242.13 1199.24C2242.13 1177.48 2236.33 1160.53 2224.73 1148.38C2213.3 1136.05 2197.34 1129.88 2176.85 1129.88H2138.5V1268.6H2176.85ZM2453.82 1239.22H2372.49L2353.45 1289H2330.6L2400.5 1109.48H2426.34L2495.98 1289H2472.86L2453.82 1239.22ZM2445.93 1218.82L2421.72 1155.18L2413.29 1130.15H2412.74L2404.86 1154.36L2380.38 1218.82H2445.93ZM2644.95 1106.76C2661.81 1106.76 2676.5 1110.57 2689.01 1118.18C2701.53 1125.62 2711.14 1136.32 2717.85 1150.28C2724.74 1164.06 2728.18 1180.38 2728.18 1199.24C2728.18 1218.1 2724.74 1234.51 2717.85 1248.47C2711.14 1262.25 2701.53 1272.95 2689.01 1280.57C2676.5 1288 2661.81 1291.72 2644.95 1291.72C2628.09 1291.72 2613.4 1288 2600.89 1280.57C2588.37 1272.95 2578.67 1262.25 2571.78 1248.47C2565.07 1234.51 2561.72 1218.1 2561.72 1199.24C2561.72 1180.38 2565.07 1164.06 2571.78 1150.28C2578.67 1136.32 2588.37 1125.62 2600.89 1118.18C2613.4 1110.57 2628.09 1106.76 2644.95 1106.76ZM2644.95 1127.16C2626.27 1127.16 2611.49 1133.6 2600.61 1146.47C2589.91 1159.17 2584.57 1176.75 2584.57 1199.24C2584.57 1221.73 2589.91 1239.41 2600.61 1252.28C2611.49 1264.97 2626.27 1271.32 2644.95 1271.32C2663.63 1271.32 2678.31 1264.97 2689.01 1252.28C2699.89 1239.41 2705.33 1221.73 2705.33 1199.24C2705.33 1176.75 2699.89 1159.17 2689.01 1146.47C2678.31 1133.6 2663.63 1127.16 2644.95 1127.16Z" fill="white"/>
</g>
<defs>
<linearGradient id="paint0_linear" x1="-243.236" y1="-67.191" x2="876.076" y2="2888.19" gradientUnits="userSpaceOnUse">
<stop stop-color="#FF9458"/>
<stop offset="1" stop-color="#FF5656"/>
</linearGradient>
<linearGradient id="paint1_linear" x1="784.409" y1="-149.685" x2="1144.06" y2="393.317" gradientUnits="userSpaceOnUse">
<stop stop-color="#FF9458"/>
<stop offset="1" stop-color="#FF5656"/>
</linearGradient>
<linearGradient id="paint2_linear" x1="463.812" y1="245.032" x2="735.894" y2="771.253" gradientUnits="userSpaceOnUse">
<stop stop-color="#FF9458"/>
<stop offset="1" stop-color="#FF5656"/>
</linearGradient>
<linearGradient id="paint3_linear" x1="325.122" y1="754.493" x2="481.912" y2="1167.13" gradientUnits="userSpaceOnUse">
<stop stop-color="#FF9458"/>
<stop offset="1" stop-color="#FF5656"/>
</linearGradient>
<linearGradient id="paint4_linear" x1="325.122" y1="1283.88" x2="481.912" y2="1696.51" gradientUnits="userSpaceOnUse">
<stop stop-color="#FF9458"/>
<stop offset="1" stop-color="#FF5656"/>
</linearGradient>
<linearGradient id="paint5_linear" x1="463.595" y1="1647.8" x2="735.48" y2="2173.88" gradientUnits="userSpaceOnUse">
<stop stop-color="#FF9458"/>
<stop offset="1" stop-color="#FF5656"/>
</linearGradient>
<linearGradient id="paint6_linear" x1="784.409" y1="1957.05" x2="1144.06" y2="2500.05" gradientUnits="userSpaceOnUse">
<stop stop-color="#FF9458"/>
<stop offset="1" stop-color="#FF5656"/>
</linearGradient>
<linearGradient id="paint7_linear" x1="1247.1" y1="2174.71" x2="1643.7" y2="2633.75" gradientUnits="userSpaceOnUse">
<stop stop-color="#FF9458"/>
<stop offset="1" stop-color="#FF5656"/>
</linearGradient>
<linearGradient id="paint8_linear" x1="1793.21" y1="2273.82" x2="2160.53" y2="2625.11" gradientUnits="userSpaceOnUse">
<stop stop-color="#FF9458"/>
<stop offset="1" stop-color="#FF5656"/>
</linearGradient>
<linearGradient id="paint9_linear" x1="2228.01" y1="2174.71" x2="2624.63" y2="2633.54" gradientUnits="userSpaceOnUse">
<stop stop-color="#FF9458"/>
<stop offset="1" stop-color="#FF5656"/>
</linearGradient>
<linearGradient id="paint10_linear" x1="2566.2" y1="1957.05" x2="2925.85" y2="2500.05" gradientUnits="userSpaceOnUse">
<stop stop-color="#FF9458"/>
<stop offset="1" stop-color="#FF5656"/>
</linearGradient>
<linearGradient id="paint11_linear" x1="2831.89" y1="1647.8" x2="3103.77" y2="2173.88" gradientUnits="userSpaceOnUse">
<stop stop-color="#FF9458"/>
<stop offset="1" stop-color="#FF5656"/>
</linearGradient>
<linearGradient id="paint12_linear" x1="2993.91" y1="1283.66" x2="3150.7" y2="1696.3" gradientUnits="userSpaceOnUse">
<stop stop-color="#FF9458"/>
<stop offset="1" stop-color="#FF5656"/>
</linearGradient>
<linearGradient id="paint13_linear" x1="2993.91" y1="754.493" x2="3150.7" y2="1167.13" gradientUnits="userSpaceOnUse">
<stop stop-color="#FF9458"/>
<stop offset="1" stop-color="#FF5656"/>
</linearGradient>
<linearGradient id="paint14_linear" x1="2831.89" y1="245.032" x2="3103.97" y2="771.253" gradientUnits="userSpaceOnUse">
<stop stop-color="#FF9458"/>
<stop offset="1" stop-color="#FF5656"/>
</linearGradient>
<linearGradient id="paint15_linear" x1="2565.98" y1="-149.685" x2="2925.63" y2="393.317" gradientUnits="userSpaceOnUse">
<stop stop-color="#FF9458"/>
<stop offset="1" stop-color="#FF5656"/>
</linearGradient>
<linearGradient id="paint16_linear" x1="2227.99" y1="-382.659" x2="2624.59" y2="76.3712" gradientUnits="userSpaceOnUse">
<stop stop-color="#FF9458"/>
<stop offset="1" stop-color="#FF5656"/>
</linearGradient>
<linearGradient id="paint17_linear" x1="1793.21" y1="-432.181" x2="2160.53" y2="-80.8941" gradientUnits="userSpaceOnUse">
<stop stop-color="#FF9458"/>
<stop offset="1" stop-color="#FF5656"/>
</linearGradient>
<linearGradient id="paint18_linear" x1="1247.1" y1="-382.659" x2="1643.7" y2="76.3712" gradientUnits="userSpaceOnUse">
<stop stop-color="#FF9458"/>
<stop offset="1" stop-color="#FF5656"/>
</linearGradient>
<linearGradient id="paint19_linear" x1="1673.35" y1="93.6825" x2="1911.84" y2="322.261" gradientUnits="userSpaceOnUse">
<stop stop-color="#FF9458"/>
<stop offset="1" stop-color="#FF5656"/>
</linearGradient>
<linearGradient id="paint20_linear" x1="2035.28" y1="93.6825" x2="2273.77" y2="322.516" gradientUnits="userSpaceOnUse">
<stop stop-color="#FF9458"/>
<stop offset="1" stop-color="#FF5656"/>
</linearGradient>
<linearGradient id="paint21_linear" x1="2289.82" y1="192.673" x2="2527.01" y2="506.26" gradientUnits="userSpaceOnUse">
<stop stop-color="#FF9458"/>
<stop offset="1" stop-color="#FF5656"/>
</linearGradient>
<linearGradient id="paint22_linear" x1="2505.37" y1="412.702" x2="2700.99" y2="747.323" gradientUnits="userSpaceOnUse">
<stop stop-color="#FF9458"/>
<stop offset="1" stop-color="#FF5656"/>
</linearGradient>
<linearGradient id="paint23_linear" x1="2656.21" y1="727.044" x2="2786.55" y2="1020.29" gradientUnits="userSpaceOnUse">
<stop stop-color="#FF9458"/>
<stop offset="1" stop-color="#FF5656"/>
</linearGradient>
<linearGradient id="paint24_linear" x1="2723.69" y1="1096.98" x2="2808.56" y2="1330.51" gradientUnits="userSpaceOnUse">
<stop stop-color="#FF9458"/>
<stop offset="1" stop-color="#FF5656"/>
</linearGradient>
<linearGradient id="paint25_linear" x1="2656.43" y1="1402.25" x2="2786.58" y2="1695.32" gradientUnits="userSpaceOnUse">
<stop stop-color="#FF9458"/>
<stop offset="1" stop-color="#FF5656"/>
</linearGradient>
<linearGradient id="paint26_linear" x1="2505.4" y1="1643.25" x2="2701.34" y2="1977.76" gradientUnits="userSpaceOnUse">
<stop stop-color="#FF9458"/>
<stop offset="1" stop-color="#FF5656"/>
</linearGradient>
<linearGradient id="paint27_linear" x1="2289.83" y1="1830.39" x2="2526.89" y2="2143.75" gradientUnits="userSpaceOnUse">
<stop stop-color="#FF9458"/>
<stop offset="1" stop-color="#FF5656"/>
</linearGradient>
<linearGradient id="paint28_linear" x1="2034.86" y1="1941.25" x2="2273.05" y2="2169.84" gradientUnits="userSpaceOnUse">
<stop stop-color="#FF9458"/>
<stop offset="1" stop-color="#FF5656"/>
</linearGradient>
<linearGradient id="paint29_linear" x1="1672.92" y1="1941.03" x2="1911.26" y2="2169.61" gradientUnits="userSpaceOnUse">
<stop stop-color="#FF9458"/>
<stop offset="1" stop-color="#FF5656"/>
</linearGradient>
<linearGradient id="paint30_linear" x1="1322.35" y1="1830.17" x2="1559.41" y2="2143.53" gradientUnits="userSpaceOnUse">
<stop stop-color="#FF9458"/>
<stop offset="1" stop-color="#FF5656"/>
</linearGradient>
<linearGradient id="paint31_linear" x1="1049.19" y1="1642.82" x2="1244.87" y2="1977.33" gradientUnits="userSpaceOnUse">
<stop stop-color="#FF9458"/>
<stop offset="1" stop-color="#FF5656"/>
</linearGradient>
<linearGradient id="paint32_linear" x1="886.97" y1="1401.82" x2="1017.12" y2="1694.89" gradientUnits="userSpaceOnUse">
<stop stop-color="#FF9458"/>
<stop offset="1" stop-color="#FF5656"/>
</linearGradient>
<linearGradient id="paint33_linear" x1="850.764" y1="1096.55" x2="935.638" y2="1330.08" gradientUnits="userSpaceOnUse">
<stop stop-color="#FF9458"/>
<stop offset="1" stop-color="#FF5656"/>
</linearGradient>
<linearGradient id="paint34_linear" x1="886.956" y1="726.612" x2="1017.24" y2="1019.91" gradientUnits="userSpaceOnUse">
<stop stop-color="#FF9458"/>
<stop offset="1" stop-color="#FF5656"/>
</linearGradient>
<linearGradient id="paint35_linear" x1="1049.41" y1="412.702" x2="1245.09" y2="747.214" gradientUnits="userSpaceOnUse">
<stop stop-color="#FF9458"/>
<stop offset="1" stop-color="#FF5656"/>
</linearGradient>
<linearGradient id="paint36_linear" x1="1322.56" y1="192.451" x2="1559.94" y2="506.09" gradientUnits="userSpaceOnUse">
<stop stop-color="#FF9458"/>
<stop offset="1" stop-color="#FF5656"/>
</linearGradient>
<linearGradient id="paint37_linear" x1="1905.46" y1="410.753" x2="2071.82" y2="530.169" gradientUnits="userSpaceOnUse">
<stop stop-color="#FF9458"/>
<stop offset="1" stop-color="#FF5656"/>
</linearGradient>
<linearGradient id="paint38_linear" x1="2114.39" y1="440.298" x2="2297.77" y2="622.981" gradientUnits="userSpaceOnUse">
<stop stop-color="#FF9458"/>
<stop offset="1" stop-color="#FF5656"/>
</linearGradient>
<linearGradient id="paint39_linear" x1="2274.46" y1="558.709" x2="2433.3" y2="791.912" gradientUnits="userSpaceOnUse">
<stop stop-color="#FF9458"/>
<stop offset="1" stop-color="#FF5656"/>
</linearGradient>
<linearGradient id="paint40_linear" x1="2396.99" y1="754.543" x2="2503.05" y2="978.081" gradientUnits="userSpaceOnUse">
<stop stop-color="#FF9458"/>
<stop offset="1" stop-color="#FF5656"/>
</linearGradient>
<linearGradient id="paint41_linear" x1="2468.21" y1="1002.94" x2="2515.96" y2="1162.9" gradientUnits="userSpaceOnUse">
<stop stop-color="#FF9458"/>
<stop offset="1" stop-color="#FF5656"/>
</linearGradient>
<linearGradient id="paint42_linear" x1="2467.77" y1="1258.65" x2="2515.48" y2="1418.63" gradientUnits="userSpaceOnUse">
<stop stop-color="#FF9458"/>
<stop offset="1" stop-color="#FF5656"/>
</linearGradient>
<linearGradient id="paint43_linear" x1="2396.54" y1="1432.32" x2="2503.05" y2="1656.47" gradientUnits="userSpaceOnUse">
<stop stop-color="#FF9458"/>
<stop offset="1" stop-color="#FF5656"/>
</linearGradient>
<linearGradient id="paint44_linear" x1="2273.56" y1="1577.23" x2="2432.68" y2="1810.88" gradientUnits="userSpaceOnUse">
<stop stop-color="#FF9458"/>
<stop offset="1" stop-color="#FF5656"/>
</linearGradient>
<linearGradient id="paint45_linear" x1="2113.95" y1="1676.67" x2="2297.94" y2="1859.35" gradientUnits="userSpaceOnUse">
<stop stop-color="#FF9458"/>
<stop offset="1" stop-color="#FF5656"/>
</linearGradient>
<linearGradient id="paint46_linear" x1="1904.81" y1="1717.21" x2="2071.66" y2="1836.46" gradientUnits="userSpaceOnUse">
<stop stop-color="#FF9458"/>
<stop offset="1" stop-color="#FF5656"/>
</linearGradient>
<linearGradient id="paint47_linear" x1="1639.52" y1="1676.67" x2="1823.35" y2="1859.35" gradientUnits="userSpaceOnUse">
<stop stop-color="#FF9458"/>
<stop offset="1" stop-color="#FF5656"/>
</linearGradient>
<linearGradient id="paint48_linear" x1="1411.87" y1="1577.24" x2="1570.8" y2="1810.81" gradientUnits="userSpaceOnUse">
<stop stop-color="#FF9458"/>
<stop offset="1" stop-color="#FF5656"/>
</linearGradient>
<linearGradient id="paint49_linear" x1="1251.45" y1="1432.12" x2="1357.64" y2="1655.88" gradientUnits="userSpaceOnUse">
<stop stop-color="#FF9458"/>
<stop offset="1" stop-color="#FF5656"/>
</linearGradient>
<linearGradient id="paint50_linear" x1="1177.32" y1="1258.44" x2="1224.95" y2="1418.15" gradientUnits="userSpaceOnUse">
<stop stop-color="#FF9458"/>
<stop offset="1" stop-color="#FF5656"/>
</linearGradient>
<linearGradient id="paint51_linear" x1="1177.76" y1="1002.29" x2="1225.58" y2="1162.2" gradientUnits="userSpaceOnUse">
<stop stop-color="#FF9458"/>
<stop offset="1" stop-color="#FF5656"/>
</linearGradient>
<linearGradient id="paint52_linear" x1="1252.13" y1="753.671" x2="1358.43" y2="977.297" gradientUnits="userSpaceOnUse">
<stop stop-color="#FF9458"/>
<stop offset="1" stop-color="#FF5656"/>
</linearGradient>
<linearGradient id="paint53_linear" x1="1412.55" y1="558.505" x2="1571" y2="791.554" gradientUnits="userSpaceOnUse">
<stop stop-color="#FF9458"/>
<stop offset="1" stop-color="#FF5656"/>
</linearGradient>
<linearGradient id="paint54_linear" x1="1640.41" y1="440.082" x2="1823.79" y2="622.272" gradientUnits="userSpaceOnUse">
<stop stop-color="#FF9458"/>
<stop offset="1" stop-color="#FF5656"/>
</linearGradient>
<clipPath id="clip0">
<rect width="3936" height="2392" fill="white"/>
</clipPath>
</defs>
</svg>
