<svg width="4056" height="2732" viewBox="0 0 4056 2732" fill="none" xmlns="http://www.w3.org/2000/svg">
<rect width="4056" height="2732" fill="white"/>
<rect width="4056" height="2732" fill="url(#paint0_linear)"/>
<path d="M1150.35 2224.45V2486.04H1095.75V2375.85H980.604V2486.04H926V2224.45H980.604V2331.86H1095.75V2224.45H1150.35Z" fill="white"/>
<path d="M1487.18 2442.04V2486.04H1285.78V2224.45H1481.64V2268.44H1340.38V2333.44H1451.57V2375.46H1340.38V2442.04H1487.18Z" fill="white"/>
<path d="M1795.74 2442.04V2486.04H1603.44V2224.45H1658.04V2442.04H1795.74Z" fill="white"/>
<path d="M2017.95 2224.45C2048.29 2224.45 2071.89 2231.85 2088.78 2246.64C2105.66 2261.18 2114.1 2281.79 2114.1 2308.47C2114.1 2334.37 2105.66 2354.58 2088.78 2369.11C2071.89 2383.65 2048.29 2390.91 2017.95 2390.91H1962.95V2486.04H1908.35V2224.45H2017.95ZM2009.64 2348.5C2026.52 2348.5 2038.92 2345.2 2046.83 2338.6C2054.75 2331.73 2058.71 2321.55 2058.71 2308.08C2058.71 2294.6 2054.75 2284.56 2046.83 2277.96C2038.92 2271.35 2026.52 2268.05 2009.64 2268.05H1962.95V2348.5H2009.64Z" fill="white"/>
<path d="M2324.4 2224.45C2365.55 2224.45 2397.73 2235.81 2420.95 2258.53C2444.16 2281.26 2455.77 2313.49 2455.77 2355.24C2455.77 2396.99 2444.16 2429.23 2420.95 2451.95C2397.73 2474.67 2365.55 2486.04 2324.4 2486.04H2240.12V2224.45H2324.4ZM2327.57 2456.31C2357.37 2456.31 2380.59 2447.46 2397.21 2429.76C2414.09 2411.79 2422.53 2386.95 2422.53 2355.24C2422.53 2323.53 2414.09 2298.83 2397.21 2281.13C2380.59 2263.16 2357.37 2254.17 2327.57 2254.17H2271.77V2456.31H2327.57Z" fill="white"/>
<path d="M2730.47 2413.51H2612.16L2584.46 2486.04H2551.22L2652.91 2224.45H2690.5L2791.8 2486.04H2758.17L2730.47 2413.51ZM2718.99 2383.78L2683.78 2291.03L2671.51 2254.57H2670.72L2659.24 2289.85L2623.63 2383.78H2718.99Z" fill="white"/>
<path d="M3008.51 2220.48C3033.04 2220.48 3054.41 2226.03 3072.61 2237.13C3090.81 2247.96 3104.8 2263.55 3114.56 2283.9C3124.58 2303.98 3129.59 2327.76 3129.59 2355.24C3129.59 2382.72 3124.58 2406.64 3114.56 2426.98C3104.8 2447.06 3090.81 2462.65 3072.61 2473.75C3054.41 2484.58 3033.04 2490 3008.51 2490C2983.98 2490 2962.61 2484.58 2944.41 2473.75C2926.21 2462.65 2912.1 2447.06 2902.07 2426.98C2892.31 2406.64 2887.43 2382.72 2887.43 2355.24C2887.43 2327.76 2892.31 2303.98 2902.07 2283.9C2912.1 2263.55 2926.21 2247.96 2944.41 2237.13C2962.61 2226.03 2983.98 2220.48 3008.51 2220.48ZM3008.51 2250.21C2981.34 2250.21 2959.84 2259.59 2944.02 2278.35C2928.45 2296.85 2920.67 2322.48 2920.67 2355.24C2920.67 2388.01 2928.45 2413.77 2944.02 2432.53C2959.84 2451.03 2981.34 2460.27 3008.51 2460.27C3035.68 2460.27 3057.05 2451.03 3072.61 2432.53C3088.44 2413.77 3096.35 2388.01 3096.35 2355.24C3096.35 2322.48 3088.44 2296.85 3072.61 2278.35C3057.05 2259.59 3035.68 2250.21 3008.51 2250.21Z" fill="white"/>
<path d="M1691.13 624.007L1540.29 393.187C1494.71 424.578 1452.24 460.24 1413.57 499.595L1614.62 688.174C1638.16 664.631 1663.78 643.165 1691.13 624.007Z" fill="white"/>
<path d="M1547.68 767.922L1327.02 602.54C1295.05 647.319 1267.24 695.214 1244.15 745.879L1497.71 854.364C1511.9 824.011 1528.64 795.044 1547.68 767.922Z" fill="white"/>
<path d="M1461.93 952.116L1197.99 872.252C1183.45 924.764 1173.75 979.237 1169.48 1035.33L1444.73 1050.56C1447.74 1016.86 1453.62 983.969 1461.93 952.116Z" fill="white"/>
<path d="M1444.73 1154.66L1169.48 1169.89C1173.75 1225.87 1183.45 1280.46 1197.99 1332.97L1461.93 1253.1C1453.62 1221.25 1447.74 1188.36 1444.73 1154.66Z" fill="white"/>
<path d="M1497.59 1350.86L1244.04 1459.23C1267.12 1509.78 1294.93 1557.79 1326.9 1602.57L1547.57 1437.3C1528.64 1410.06 1511.9 1381.21 1497.59 1350.86Z" fill="white"/>
<path d="M1614.62 1517.05L1413.57 1705.63C1452.24 1744.98 1494.71 1780.76 1540.29 1812.03L1691.13 1581.21C1663.78 1562.06 1638.16 1540.59 1614.62 1517.05Z" fill="white"/>
<path d="M1656.74 1879.43C1706.14 1903.09 1758.19 1922.14 1812.32 1936.1L1875.1 1667.54C1842.67 1658.77 1811.28 1647.34 1781.27 1633.38L1656.74 1879.43Z" fill="white"/>
<path d="M2027.56 1687.62C2010.71 1687.62 1994.09 1686.93 1977.7 1685.55L1944.81 1959.3C1972.04 1961.95 1999.63 1963.22 2027.56 1963.22C2055.48 1963.22 2083.07 1961.84 2110.3 1959.3L2077.53 1685.55C2061.02 1686.93 2044.41 1687.62 2027.56 1687.62Z" fill="white"/>
<path d="M2180.01 1667.54L2242.79 1936.1C2296.8 1922.14 2348.85 1903.09 2398.25 1879.43L2273.72 1633.38C2243.94 1647.34 2212.55 1658.89 2180.01 1667.54Z" fill="white"/>
<path d="M2364.09 1581.21L2514.93 1812.03C2560.52 1780.64 2602.99 1744.98 2641.65 1705.63L2440.61 1517.05C2416.95 1540.59 2391.33 1562.06 2364.09 1581.21Z" fill="white"/>
<path d="M2507.43 1437.3L2728.09 1602.57C2760.06 1557.79 2787.87 1509.89 2810.95 1459.23L2557.4 1350.86C2543.2 1381.21 2526.47 1410.06 2507.43 1437.3Z" fill="white"/>
<path d="M2593.18 1252.99L2857.12 1332.85C2871.66 1280.34 2881.36 1225.87 2885.63 1169.78L2610.37 1154.55C2607.37 1188.36 2601.49 1221.25 2593.18 1252.99Z" fill="white"/>
<path d="M2610.37 1050.56L2885.63 1035.33C2881.36 979.353 2871.66 924.764 2857.12 872.252L2593.18 952.116C2601.49 983.969 2607.37 1016.86 2610.37 1050.56Z" fill="white"/>
<path d="M2557.4 854.364L2810.95 745.879C2787.87 695.33 2760.06 647.319 2728.09 602.54L2507.43 767.922C2526.47 795.044 2543.2 824.011 2557.4 854.364Z" fill="white"/>
<path d="M2440.49 688.174L2641.54 499.595C2602.87 460.24 2560.4 424.463 2514.82 393.187L2363.97 624.007C2391.33 643.165 2416.95 664.631 2440.49 688.174Z" fill="white"/>
<path d="M2398.36 325.787C2348.97 302.128 2296.92 283.086 2242.79 269.121L2180.01 537.679C2212.44 546.451 2243.83 557.876 2273.84 571.841L2398.36 325.787Z" fill="white"/>
<path d="M2027.56 517.598C2044.41 517.598 2061.02 518.291 2077.53 519.676L2110.3 245.924C2083.07 243.269 2055.48 242 2027.56 242C1999.63 242 1972.04 243.385 1944.81 245.924L1977.7 519.676C1994.09 518.291 2010.71 517.598 2027.56 517.598Z" fill="white"/>
<path d="M1875.1 537.564L1812.32 269.121C1758.3 282.97 1706.25 302.128 1656.74 325.787L1781.27 571.841C1811.16 557.876 1842.55 546.335 1875.1 537.564Z" fill="white"/>
<path opacity="0.7" d="M1984.97 689.79L1975.62 519.791C1959.12 521.291 1942.61 523.484 1926.11 526.369C1909.6 529.255 1893.22 532.832 1877.29 537.103L1926.57 700.061C1945.61 695.329 1965.12 691.867 1984.97 689.79Z" fill="white"/>
<path opacity="0.7" d="M2070.37 689.79C2090.34 691.867 2109.73 695.329 2128.77 700.061L2178.16 537.103C2146.2 528.562 2113.3 522.676 2079.83 519.791L2070.37 689.79Z" fill="white"/>
<path opacity="0.7" d="M2208.98 729.26C2226.87 737.916 2243.95 747.841 2260.34 758.92L2362.36 622.737C2335.01 603.694 2306.15 586.96 2275.92 572.765L2208.98 729.26Z" fill="white"/>
<path opacity="0.7" d="M2325.66 813.855C2339.39 828.051 2352.2 843.169 2363.74 859.211L2506.39 766.076C2487.12 738.724 2465.65 713.102 2442.11 689.674L2325.66 813.855Z" fill="white"/>
<path opacity="0.7" d="M2558.44 856.326L2406.45 933.189C2414.52 951.193 2421.33 969.774 2426.76 988.932L2592.37 950.269C2583.71 917.608 2572.29 886.217 2558.44 856.326Z" fill="white"/>
<path opacity="0.7" d="M2610.49 1052.75L2441.53 1072.95C2442.22 1082.76 2442.57 1092.69 2442.57 1102.61C2442.57 1112.54 2442.22 1122.46 2441.53 1132.27L2610.6 1152.58C2613.37 1119.92 2613.49 1086.45 2610.49 1052.75Z" fill="white"/>
<path opacity="0.7" d="M2592.49 1255.3L2426.87 1216.52C2421.45 1235.68 2414.64 1254.37 2406.56 1272.26L2558.32 1349.01C2572.29 1318.89 2583.71 1287.61 2592.49 1255.3Z" fill="white"/>
<path opacity="0.7" d="M2506.16 1439.15L2363.86 1346.13C2352.2 1362.17 2339.51 1377.4 2325.66 1391.6L2441.99 1515.78C2465.53 1492 2487 1466.38 2506.16 1439.15Z" fill="white"/>
<path opacity="0.7" d="M2362.24 1582.6L2260.34 1446.42C2244.06 1457.49 2226.87 1467.42 2208.98 1476.08L2275.8 1632.46C2306.15 1618.38 2335.12 1601.53 2362.24 1582.6Z" fill="white"/>
<path opacity="0.7" d="M2070.14 1515.66L2079.49 1685.43C2095.88 1683.93 2112.5 1681.74 2129 1678.85C2145.62 1675.97 2161.89 1672.39 2177.82 1668.12L2128.65 1505.39C2109.61 1510.12 2090.11 1513.58 2070.14 1515.66Z" fill="white"/>
<path opacity="0.7" d="M1984.74 1515.55C1964.77 1513.47 1945.27 1510.01 1926.34 1505.27L1877.06 1668C1909.03 1676.54 1941.92 1682.43 1975.39 1685.43L1984.74 1515.55Z" fill="white"/>
<path opacity="0.7" d="M1846.13 1476.08C1828.24 1467.42 1811.04 1457.38 1794.77 1446.3L1692.87 1582.37C1720.22 1601.41 1749.07 1618.15 1779.31 1632.34L1846.13 1476.08Z" fill="white"/>
<path opacity="0.7" d="M1613 1515.43L1729.45 1391.37C1715.72 1377.17 1702.91 1361.94 1691.37 1345.89L1548.83 1438.91C1567.99 1466.38 1589.46 1492 1613 1515.43Z" fill="white"/>
<path opacity="0.7" d="M1648.55 1272.03C1640.47 1254.03 1633.66 1235.45 1628.24 1216.29L1462.62 1254.95C1471.39 1287.61 1482.82 1319 1496.67 1348.78L1648.55 1272.03Z" fill="white"/>
<path opacity="0.7" d="M1444.62 1152.35L1613.58 1132.15C1612.89 1122.46 1612.54 1112.65 1612.54 1102.73C1612.54 1092.68 1612.89 1082.76 1613.58 1072.83L1444.5 1052.52C1441.73 1085.3 1441.62 1118.65 1444.62 1152.35Z" fill="white"/>
<path opacity="0.7" d="M1462.62 949.923L1628.35 988.701C1633.77 969.543 1640.58 950.846 1648.66 932.958L1496.9 856.095C1482.82 886.217 1471.39 917.608 1462.62 949.923Z" fill="white"/>
<path opacity="0.7" d="M1548.95 766.076L1691.36 859.211C1703.02 843.169 1715.72 828.051 1729.56 813.855L1613.12 689.674C1589.57 713.218 1568.11 738.839 1548.95 766.076Z" fill="white"/>
<path opacity="0.7" d="M1846.36 729.26L1779.42 572.649C1748.95 586.96 1720.1 603.694 1692.98 622.621L1795.12 758.92C1811.28 747.841 1828.47 737.916 1846.36 729.26Z" fill="white"/>
<path opacity="0.4" d="M1998.13 688.635L2013.82 820.202C2018.32 819.972 2022.82 819.856 2027.44 819.856C2032.17 819.856 2036.9 819.972 2041.64 820.202L2057.45 688.635C2037.48 687.25 2017.63 687.25 1998.13 688.635Z" fill="white"/>
<path opacity="0.4" d="M2141.46 703.523L2111.23 832.436C2120.11 835.206 2128.88 838.322 2137.31 842.015L2197.21 723.836C2179.32 715.872 2160.74 709.063 2141.46 703.523Z" fill="white"/>
<path opacity="0.4" d="M2219.71 895.335L2316.54 804.622C2302.46 790.889 2287.23 778.078 2271.18 766.422L2198.59 877.446C2205.86 883.101 2212.9 889.102 2219.71 895.335Z" fill="white"/>
<path opacity="0.4" d="M2400.9 921.532C2392.25 903.759 2382.32 886.563 2371.24 870.175L2265.07 949.577C2270.03 957.309 2274.65 965.388 2278.92 973.582L2400.9 921.532Z" fill="white"/>
<path opacity="0.4" d="M2430.22 1001.63L2303.15 1040.06C2305.11 1049.06 2306.84 1058.18 2307.88 1067.41L2440.49 1060.14C2438.53 1040.29 2434.95 1020.78 2430.22 1001.63Z" fill="white"/>
<path opacity="0.4" d="M2436.22 1174.86C2437.95 1165.05 2439.33 1155.24 2440.37 1145.43L2307.77 1138.04C2306.61 1147.27 2305 1156.39 2302.92 1165.28L2429.99 1203.82C2432.52 1194.36 2434.6 1184.67 2436.22 1174.86Z" fill="white"/>
<path opacity="0.4" d="M2371.24 1335.51C2382.32 1319.23 2392.25 1302.15 2400.9 1284.15L2278.69 1231.75C2274.53 1239.95 2269.8 1248.03 2264.84 1255.76L2371.24 1335.51Z" fill="white"/>
<path opacity="0.4" d="M2270.84 1438.91C2286.76 1427.37 2302 1414.56 2316.31 1400.83L2219.37 1309.77C2212.56 1316.12 2205.52 1322 2198.13 1327.54L2270.84 1438.91Z" fill="white"/>
<path opacity="0.4" d="M2110.99 1372.55L2141.23 1502.04C2160.39 1496.62 2178.97 1489.81 2196.97 1481.73L2136.96 1363.09C2128.54 1366.67 2119.88 1369.78 2110.99 1372.55Z" fill="white"/>
<path opacity="0.4" d="M2027.44 1385.02C2022.83 1385.02 2018.21 1384.9 2013.71 1384.67L1997.78 1516.7C2017.75 1518.09 2037.6 1518.09 2057.1 1516.7L2041.29 1384.56C2036.67 1384.9 2032.06 1385.02 2027.44 1385.02Z" fill="white"/>
<path opacity="0.4" d="M1857.9 1481.62C1875.79 1489.58 1894.37 1496.39 1913.64 1501.93L1943.88 1372.55C1935 1369.78 1926.34 1366.67 1917.91 1363.09L1857.9 1481.62Z" fill="white"/>
<path opacity="0.4" d="M1835.4 1309.77L1738.45 1400.6C1752.53 1414.33 1767.77 1427.14 1783.92 1438.8L1856.63 1327.66C1849.36 1322.12 1842.21 1316.12 1835.4 1309.77Z" fill="white"/>
<path opacity="0.4" d="M1789.93 1255.64C1784.96 1247.91 1780.23 1239.83 1775.96 1231.64L1653.97 1283.69C1662.63 1301.58 1672.55 1318.77 1683.63 1335.16L1789.93 1255.64Z" fill="white"/>
<path opacity="0.4" d="M1624.77 1203.59L1751.72 1165.28C1749.76 1156.28 1748.03 1147.16 1746.99 1137.93L1614.5 1145.2C1616.58 1164.93 1620.04 1184.44 1624.77 1203.59Z" fill="white"/>
<path opacity="0.4" d="M1625.12 1001.28C1622.7 1010.86 1620.62 1020.55 1618.89 1030.48C1617.16 1040.29 1615.77 1049.98 1614.73 1059.68L1746.99 1067.06C1748.15 1057.83 1749.76 1048.71 1751.84 1039.71L1625.12 1001.28Z" fill="white"/>
<path opacity="0.4" d="M1683.98 869.713C1673.02 885.986 1662.98 903.182 1654.32 921.071L1776.08 973.236C1780.35 965.042 1784.96 956.963 1790.04 949.231L1683.98 869.713Z" fill="white"/>
<path opacity="0.4" d="M1784.38 766.306C1768.34 777.963 1753.11 790.658 1738.8 804.392L1835.4 894.988C1842.2 888.641 1849.24 882.755 1856.75 877.1L1784.38 766.306Z" fill="white"/>
<path opacity="0.4" d="M1913.99 703.408C1894.83 708.832 1876.25 715.641 1858.36 723.72L1918.03 841.9C1926.57 838.322 1935.23 835.091 1944.11 832.436L1913.99 703.408Z" fill="white"/>
<defs>
<linearGradient id="paint0_linear" x1="-250.652" y1="-76.7416" x2="1126.8" y2="3204.68" gradientUnits="userSpaceOnUse">
<stop stop-color="#FF9458"/>
<stop offset="1" stop-color="#FF5656"/>
</linearGradient>
</defs>
</svg>
