<svg width="3936" height="2392" viewBox="0 0 3936 2392" fill="none" xmlns="http://www.w3.org/2000/svg">
<rect width="3936" height="2392" fill="white"/>
<path d="M1802.32 1141.48V1255H1778.58V1207.18H1728.53V1255H1704.79V1141.48H1728.53V1188.09H1778.58V1141.48H1802.32ZM1948.73 1235.91V1255H1861.18V1141.48H1946.32V1160.57H1884.92V1188.78H1933.25V1207.01H1884.92V1235.91H1948.73ZM2082.86 1235.91V1255H1999.27V1141.48H2023V1235.91H2082.86ZM2179.45 1141.48C2192.64 1141.48 2202.9 1144.69 2210.24 1151.11C2217.58 1157.42 2221.25 1166.36 2221.25 1177.94C2221.25 1189.18 2217.58 1197.95 2210.24 1204.26C2202.9 1210.57 2192.64 1213.72 2179.45 1213.72H2155.54V1255H2131.81V1141.48H2179.45ZM2175.84 1195.32C2183.18 1195.32 2188.57 1193.88 2192.01 1191.02C2195.45 1188.03 2197.17 1183.62 2197.17 1177.77C2197.17 1171.92 2195.45 1167.57 2192.01 1164.7C2188.57 1161.83 2183.18 1160.4 2175.84 1160.4H2155.54V1195.32H2175.84ZM2312.66 1141.48C2330.55 1141.48 2344.54 1146.41 2354.63 1156.27C2364.72 1166.13 2369.77 1180.12 2369.77 1198.24C2369.77 1216.36 2364.72 1230.35 2354.63 1240.21C2344.54 1250.07 2330.55 1255 2312.66 1255H2276.03V1141.48H2312.66ZM2314.04 1242.1C2327 1242.1 2337.09 1238.26 2344.31 1230.58C2351.65 1222.78 2355.32 1212 2355.32 1198.24C2355.32 1184.48 2351.65 1173.76 2344.31 1166.08C2337.09 1158.28 2327 1154.38 2314.04 1154.38H2289.79V1242.1H2314.04ZM2489.18 1223.52H2437.75L2425.71 1255H2411.26L2455.47 1141.48H2471.81L2515.84 1255H2501.22L2489.18 1223.52ZM2484.19 1210.62L2468.88 1170.38L2463.55 1154.55H2463.21L2458.22 1169.86L2442.74 1210.62H2484.19ZM2610.04 1139.76C2620.71 1139.76 2629.99 1142.17 2637.91 1146.98C2645.82 1151.69 2651.89 1158.45 2656.14 1167.28C2660.49 1175.99 2662.67 1186.31 2662.67 1198.24C2662.67 1210.17 2660.49 1220.54 2656.14 1229.37C2651.89 1238.09 2645.82 1244.85 2637.91 1249.67C2629.99 1254.37 2620.71 1256.72 2610.04 1256.72C2599.38 1256.72 2590.09 1254.37 2582.18 1249.67C2574.27 1244.85 2568.13 1238.09 2563.77 1229.37C2559.53 1220.54 2557.41 1210.17 2557.41 1198.24C2557.41 1186.31 2559.53 1175.99 2563.77 1167.28C2568.13 1158.45 2574.27 1151.69 2582.18 1146.98C2590.09 1142.17 2599.38 1139.76 2610.04 1139.76ZM2610.04 1152.66C2598.23 1152.66 2588.89 1156.73 2582.01 1164.87C2575.24 1172.9 2571.86 1184.02 2571.86 1198.24C2571.86 1212.46 2575.24 1223.64 2582.01 1231.78C2588.89 1239.81 2598.23 1243.82 2610.04 1243.82C2621.85 1243.82 2631.14 1239.81 2637.91 1231.78C2644.79 1223.64 2648.23 1212.46 2648.23 1198.24C2648.23 1184.02 2644.79 1172.9 2637.91 1164.87C2631.14 1156.73 2621.85 1152.66 2610.04 1152.66Z" fill="url(#paint0_linear)"/>
<path d="M1230.34 1066.51L1189.47 1003.97C1177.12 1012.47 1165.61 1022.13 1155.14 1032.8L1209.61 1083.89C1215.99 1077.51 1222.93 1071.7 1230.34 1066.51Z" fill="url(#paint1_linear)"/>
<path d="M1191.48 1105.5L1131.69 1060.69C1123.02 1072.82 1115.49 1085.8 1109.23 1099.53L1177.93 1128.92C1181.78 1120.7 1186.32 1112.85 1191.48 1105.5Z" fill="url(#paint2_linear)"/>
<path d="M1168.24 1155.41L1096.72 1133.77C1092.78 1148 1090.16 1162.76 1089 1177.96L1163.58 1182.08C1164.39 1172.95 1165.99 1164.04 1168.24 1155.41Z" fill="url(#paint3_linear)"/>
<path d="M1163.58 1210.29L1089 1214.42C1090.16 1229.59 1092.78 1244.38 1096.72 1258.61L1168.24 1236.97C1165.99 1228.33 1164.39 1219.42 1163.58 1210.29Z" fill="url(#paint4_linear)"/>
<path d="M1177.9 1263.45L1109.2 1292.82C1115.46 1306.51 1122.99 1319.52 1131.65 1331.65L1191.44 1286.87C1186.32 1279.49 1181.78 1271.68 1177.9 1263.45Z" fill="url(#paint5_linear)"/>
<path d="M1209.61 1308.48L1155.14 1359.58C1165.61 1370.24 1177.12 1379.94 1189.47 1388.41L1230.34 1325.87C1222.93 1320.68 1215.99 1314.86 1209.61 1308.48Z" fill="url(#paint6_linear)"/>
<path d="M1221.03 1406.67C1234.41 1413.08 1248.51 1418.24 1263.18 1422.03L1280.19 1349.26C1271.4 1346.88 1262.9 1343.79 1254.77 1340L1221.03 1406.67Z" fill="url(#paint7_linear)"/>
<path d="M1321.5 1354.7C1316.93 1354.7 1312.43 1354.51 1307.99 1354.14L1299.08 1428.31C1306.46 1429.03 1313.93 1429.38 1321.5 1429.38C1329.07 1429.38 1336.54 1429 1343.92 1428.31L1335.04 1354.14C1330.57 1354.51 1326.07 1354.7 1321.5 1354.7Z" fill="url(#paint8_linear)"/>
<path d="M1362.81 1349.26L1379.82 1422.03C1394.46 1418.24 1408.56 1413.08 1421.94 1406.67L1388.2 1340C1380.13 1343.79 1371.63 1346.91 1362.81 1349.26Z" fill="url(#paint9_linear)"/>
<path d="M1412.69 1325.87L1453.56 1388.41C1465.91 1379.91 1477.42 1370.24 1487.89 1359.58L1433.42 1308.48C1427.01 1314.86 1420.07 1320.68 1412.69 1325.87Z" fill="url(#paint10_linear)"/>
<path d="M1451.52 1286.87L1511.32 1331.65C1519.98 1319.52 1527.51 1306.54 1533.77 1292.82L1465.07 1263.45C1461.22 1271.68 1456.68 1279.49 1451.52 1286.87Z" fill="url(#paint11_linear)"/>
<path d="M1474.76 1236.93L1546.28 1258.57C1550.22 1244.35 1552.84 1229.59 1554 1214.39L1479.42 1210.26C1478.61 1219.42 1477.01 1228.33 1474.76 1236.93Z" fill="url(#paint12_linear)"/>
<path d="M1479.42 1182.08L1554 1177.96C1552.84 1162.79 1550.22 1148 1546.28 1133.77L1474.76 1155.41C1477.01 1164.04 1478.61 1172.95 1479.42 1182.08Z" fill="url(#paint13_linear)"/>
<path d="M1465.07 1128.92L1533.77 1099.53C1527.51 1085.83 1519.98 1072.82 1511.32 1060.69L1451.52 1105.5C1456.68 1112.85 1461.22 1120.7 1465.07 1128.92Z" fill="url(#paint14_linear)"/>
<path d="M1433.39 1083.89L1487.86 1032.8C1477.39 1022.13 1465.88 1012.44 1453.53 1003.97L1412.65 1066.51C1420.07 1071.7 1427.01 1077.51 1433.39 1083.89Z" fill="url(#paint15_linear)"/>
<path d="M1421.97 985.703C1408.59 979.292 1394.49 974.132 1379.82 970.349L1362.81 1043.12C1371.6 1045.49 1380.1 1048.59 1388.23 1052.37L1421.97 985.703Z" fill="url(#paint16_linear)"/>
<path d="M1321.5 1037.68C1326.07 1037.68 1330.57 1037.86 1335.04 1038.24L1343.92 964.063C1336.54 963.344 1329.07 963 1321.5 963C1313.93 963 1306.46 963.375 1299.08 964.063L1307.99 1038.24C1312.43 1037.86 1316.93 1037.68 1321.5 1037.68Z" fill="url(#paint17_linear)"/>
<path d="M1280.19 1043.08L1263.18 970.349C1248.54 974.101 1234.44 979.292 1221.03 985.703L1254.77 1052.37C1262.87 1048.59 1271.37 1045.46 1280.19 1043.08Z" fill="url(#paint18_linear)"/>
<path opacity="0.7" d="M1309.96 1084.33L1307.43 1038.27C1302.96 1038.68 1298.48 1039.27 1294.01 1040.05C1289.54 1040.83 1285.1 1041.8 1280.79 1042.96L1294.14 1087.11C1299.3 1085.83 1304.58 1084.89 1309.96 1084.33Z" fill="url(#paint19_linear)"/>
<path opacity="0.7" d="M1333.1 1084.33C1338.51 1084.89 1343.76 1085.83 1348.92 1087.11L1362.31 1042.96C1353.65 1040.65 1344.73 1039.05 1335.67 1038.27L1333.1 1084.33Z" fill="url(#paint20_linear)"/>
<path opacity="0.7" d="M1370.66 1095.03C1375.51 1097.37 1380.13 1100.06 1384.57 1103.06L1412.22 1066.16C1404.81 1061 1396.99 1056.47 1388.8 1052.62L1370.66 1095.03Z" fill="url(#paint21_linear)"/>
<path opacity="0.7" d="M1402.27 1117.95C1405.99 1121.79 1409.47 1125.89 1412.59 1130.24L1451.24 1105C1446.02 1097.59 1440.2 1090.65 1433.83 1084.3L1402.27 1117.95Z" fill="url(#paint22_linear)"/>
<path opacity="0.7" d="M1465.35 1129.46L1424.16 1150.28C1426.35 1155.16 1428.2 1160.19 1429.67 1165.39L1474.54 1154.91C1472.19 1146.06 1469.1 1137.55 1465.35 1129.46Z" fill="url(#paint23_linear)"/>
<path opacity="0.7" d="M1479.45 1182.68L1433.67 1188.15C1433.86 1190.81 1433.95 1193.5 1433.95 1196.19C1433.95 1198.88 1433.86 1201.57 1433.67 1204.22L1479.48 1209.73C1480.23 1200.88 1480.26 1191.81 1479.45 1182.68Z" fill="url(#paint24_linear)"/>
<path opacity="0.7" d="M1474.57 1237.56L1429.7 1227.05C1428.23 1232.24 1426.38 1237.31 1424.19 1242.16L1465.32 1262.95C1469.1 1254.79 1472.19 1246.32 1474.57 1237.56Z" fill="url(#paint25_linear)"/>
<path opacity="0.7" d="M1451.18 1287.37L1412.62 1262.17C1409.47 1266.52 1406.03 1270.64 1402.27 1274.49L1433.79 1308.14C1440.17 1301.7 1445.99 1294.75 1451.18 1287.37Z" fill="url(#paint26_linear)"/>
<path opacity="0.7" d="M1412.19 1326.24L1384.57 1289.34C1380.16 1292.35 1375.51 1295.04 1370.66 1297.38L1388.76 1339.75C1396.99 1335.94 1404.84 1331.37 1412.19 1326.24Z" fill="url(#paint27_linear)"/>
<path opacity="0.7" d="M1333.04 1308.11L1335.57 1354.11C1340.01 1353.7 1344.52 1353.11 1348.99 1352.32C1353.49 1351.54 1357.9 1350.57 1362.21 1349.42L1348.89 1305.32C1343.73 1306.61 1338.45 1307.54 1333.04 1308.11Z" fill="url(#paint28_linear)"/>
<path opacity="0.7" d="M1309.9 1308.08C1304.49 1307.51 1299.2 1306.57 1294.08 1305.29L1280.72 1349.38C1289.38 1351.7 1298.3 1353.29 1307.37 1354.11L1309.9 1308.08Z" fill="url(#paint29_linear)"/>
<path opacity="0.7" d="M1272.34 1297.38C1267.49 1295.04 1262.84 1292.32 1258.43 1289.31L1230.81 1326.18C1238.23 1331.34 1246.04 1335.88 1254.24 1339.72L1272.34 1297.38Z" fill="url(#paint30_linear)"/>
<path opacity="0.7" d="M1209.17 1308.04L1240.73 1274.43C1237.01 1270.58 1233.53 1266.45 1230.41 1262.11L1191.79 1287.31C1196.98 1294.75 1202.8 1301.7 1209.17 1308.04Z" fill="url(#paint31_linear)"/>
<path opacity="0.7" d="M1218.81 1242.09C1216.62 1237.22 1214.77 1232.18 1213.3 1226.99L1168.43 1237.47C1170.8 1246.32 1173.9 1254.82 1177.65 1262.89L1218.81 1242.09Z" fill="url(#paint32_linear)"/>
<path opacity="0.7" d="M1163.55 1209.67L1209.33 1204.19C1209.14 1201.57 1209.05 1198.91 1209.05 1196.22C1209.05 1193.5 1209.14 1190.81 1209.33 1188.12L1163.52 1182.62C1162.77 1191.5 1162.74 1200.53 1163.55 1209.67Z" fill="url(#paint33_linear)"/>
<path opacity="0.7" d="M1168.43 1154.82L1213.33 1165.32C1214.8 1160.13 1216.65 1155.07 1218.84 1150.22L1177.72 1129.39C1173.9 1137.55 1170.8 1146.06 1168.43 1154.82Z" fill="url(#paint34_linear)"/>
<path opacity="0.7" d="M1191.82 1105L1230.41 1130.24C1233.57 1125.89 1237.01 1121.79 1240.76 1117.95L1209.21 1084.3C1202.83 1090.68 1197.01 1097.62 1191.82 1105Z" fill="url(#paint35_linear)"/>
<path opacity="0.7" d="M1272.4 1095.03L1254.27 1052.59C1246.01 1056.47 1238.19 1061 1230.85 1066.13L1258.52 1103.06C1262.9 1100.06 1267.56 1097.37 1272.4 1095.03Z" fill="url(#paint36_linear)"/>
<path opacity="0.4" d="M1313.53 1084.02L1317.78 1119.67C1319 1119.61 1320.22 1119.57 1321.47 1119.57C1322.75 1119.57 1324.03 1119.61 1325.32 1119.67L1329.6 1084.02C1324.19 1083.64 1318.81 1083.64 1313.53 1084.02Z" fill="url(#paint37_linear)"/>
<path opacity="0.4" d="M1352.36 1088.05L1344.17 1122.98C1346.58 1123.73 1348.96 1124.58 1351.24 1125.58L1367.47 1093.56C1362.62 1091.4 1357.59 1089.55 1352.36 1088.05Z" fill="url(#paint38_linear)"/>
<path opacity="0.4" d="M1373.57 1140.03L1399.8 1115.45C1395.99 1111.72 1391.86 1108.25 1387.51 1105.1L1367.84 1135.18C1369.81 1136.71 1371.72 1138.34 1373.57 1140.03Z" fill="url(#paint39_linear)"/>
<path opacity="0.4" d="M1422.66 1147.12C1420.32 1142.31 1417.63 1137.65 1414.62 1133.21L1385.86 1154.72C1387.2 1156.82 1388.45 1159.01 1389.61 1161.23L1422.66 1147.12Z" fill="url(#paint40_linear)"/>
<path opacity="0.4" d="M1430.6 1168.83L1396.18 1179.24C1396.71 1181.68 1397.18 1184.15 1397.46 1186.65L1433.39 1184.68C1432.86 1179.3 1431.89 1174.02 1430.6 1168.83Z" fill="url(#paint41_linear)"/>
<path opacity="0.4" d="M1432.23 1215.76C1432.7 1213.11 1433.08 1210.45 1433.36 1207.79L1397.43 1205.79C1397.11 1208.29 1396.68 1210.76 1396.11 1213.17L1430.54 1223.61C1431.23 1221.05 1431.79 1218.42 1432.23 1215.76Z" fill="url(#paint42_linear)"/>
<path opacity="0.4" d="M1414.63 1259.29C1417.63 1254.88 1420.32 1250.26 1422.66 1245.38L1389.55 1231.18C1388.42 1233.4 1387.14 1235.59 1385.79 1237.68L1414.63 1259.29Z" fill="url(#paint43_linear)"/>
<path opacity="0.4" d="M1387.42 1287.31C1391.73 1284.18 1395.86 1280.71 1399.74 1276.99L1373.47 1252.32C1371.63 1254.04 1369.72 1255.63 1367.72 1257.14L1387.42 1287.31Z" fill="url(#paint44_linear)"/>
<path opacity="0.4" d="M1344.11 1269.33L1352.3 1304.42C1357.49 1302.95 1362.53 1301.1 1367.41 1298.91L1351.14 1266.77C1348.86 1267.74 1346.52 1268.58 1344.11 1269.33Z" fill="url(#paint45_linear)"/>
<path opacity="0.4" d="M1321.47 1272.71C1320.22 1272.71 1318.97 1272.68 1317.75 1272.61L1313.43 1308.39C1318.84 1308.76 1324.22 1308.76 1329.51 1308.39L1325.22 1272.58C1323.97 1272.68 1322.72 1272.71 1321.47 1272.71Z" fill="url(#paint46_linear)"/>
<path opacity="0.4" d="M1275.53 1298.88C1280.38 1301.04 1285.41 1302.88 1290.64 1304.39L1298.83 1269.33C1296.42 1268.58 1294.08 1267.74 1291.79 1266.77L1275.53 1298.88Z" fill="url(#paint47_linear)"/>
<path opacity="0.4" d="M1269.43 1252.32L1243.17 1276.93C1246.98 1280.65 1251.11 1284.12 1255.49 1287.28L1275.19 1257.17C1273.22 1255.67 1271.28 1254.04 1269.43 1252.32Z" fill="url(#paint48_linear)"/>
<path opacity="0.4" d="M1257.11 1237.65C1255.77 1235.56 1254.49 1233.37 1253.33 1231.15L1220.28 1245.25C1222.62 1250.1 1225.31 1254.76 1228.31 1259.2L1257.11 1237.65Z" fill="url(#paint49_linear)"/>
<path opacity="0.4" d="M1212.36 1223.55L1246.76 1213.17C1246.23 1210.73 1245.76 1208.26 1245.48 1205.76L1209.58 1207.73C1210.14 1213.07 1211.08 1218.36 1212.36 1223.55Z" fill="url(#paint50_linear)"/>
<path opacity="0.4" d="M1212.46 1168.73C1211.8 1171.33 1211.24 1173.95 1210.77 1176.64C1210.3 1179.3 1209.92 1181.93 1209.64 1184.56L1245.48 1186.56C1245.79 1184.05 1246.23 1181.58 1246.79 1179.15L1212.46 1168.73Z" fill="url(#paint51_linear)"/>
<path opacity="0.4" d="M1228.41 1133.08C1225.44 1137.49 1222.71 1142.15 1220.37 1147L1253.36 1161.13C1254.52 1158.91 1255.77 1156.72 1257.14 1154.63L1228.41 1133.08Z" fill="url(#paint52_linear)"/>
<path opacity="0.4" d="M1255.61 1105.06C1251.27 1108.22 1247.14 1111.66 1243.26 1115.38L1269.43 1139.93C1271.28 1138.21 1273.19 1136.62 1275.22 1135.08L1255.61 1105.06Z" fill="url(#paint53_linear)"/>
<path opacity="0.4" d="M1290.73 1088.02C1285.54 1089.49 1280.5 1091.34 1275.66 1093.53L1291.82 1125.55C1294.14 1124.58 1296.48 1123.7 1298.89 1122.98L1290.73 1088.02Z" fill="url(#paint54_linear)"/>
<defs>
<linearGradient id="paint0_linear" x1="1629.13" y1="1089.33" x2="1665.02" y2="1370.12" gradientUnits="userSpaceOnUse">
<stop stop-color="#FF9458"/>
<stop offset="1" stop-color="#FF5656"/>
</linearGradient>
<linearGradient id="paint1_linear" x1="1150.49" y1="1001.72" x2="1202.48" y2="1080.21" gradientUnits="userSpaceOnUse">
<stop stop-color="#FF9458"/>
<stop offset="1" stop-color="#FF5656"/>
</linearGradient>
<linearGradient id="paint2_linear" x1="1104.15" y1="1058.77" x2="1143.48" y2="1134.84" gradientUnits="userSpaceOnUse">
<stop stop-color="#FF9458"/>
<stop offset="1" stop-color="#FF5656"/>
</linearGradient>
<linearGradient id="paint3_linear" x1="1084.1" y1="1132.41" x2="1106.77" y2="1192.06" gradientUnits="userSpaceOnUse">
<stop stop-color="#FF9458"/>
<stop offset="1" stop-color="#FF5656"/>
</linearGradient>
<linearGradient id="paint4_linear" x1="1084.1" y1="1208.93" x2="1106.77" y2="1268.58" gradientUnits="userSpaceOnUse">
<stop stop-color="#FF9458"/>
<stop offset="1" stop-color="#FF5656"/>
</linearGradient>
<linearGradient id="paint5_linear" x1="1104.12" y1="1261.54" x2="1143.42" y2="1337.58" gradientUnits="userSpaceOnUse">
<stop stop-color="#FF9458"/>
<stop offset="1" stop-color="#FF5656"/>
</linearGradient>
<linearGradient id="paint6_linear" x1="1150.49" y1="1306.24" x2="1202.48" y2="1384.72" gradientUnits="userSpaceOnUse">
<stop stop-color="#FF9458"/>
<stop offset="1" stop-color="#FF5656"/>
</linearGradient>
<linearGradient id="paint7_linear" x1="1217.37" y1="1337.7" x2="1274.7" y2="1404.05" gradientUnits="userSpaceOnUse">
<stop stop-color="#FF9458"/>
<stop offset="1" stop-color="#FF5656"/>
</linearGradient>
<linearGradient id="paint8_linear" x1="1296.31" y1="1352.02" x2="1349.4" y2="1402.8" gradientUnits="userSpaceOnUse">
<stop stop-color="#FF9458"/>
<stop offset="1" stop-color="#FF5656"/>
</linearGradient>
<linearGradient id="paint9_linear" x1="1359.15" y1="1337.7" x2="1416.49" y2="1404.02" gradientUnits="userSpaceOnUse">
<stop stop-color="#FF9458"/>
<stop offset="1" stop-color="#FF5656"/>
</linearGradient>
<linearGradient id="paint10_linear" x1="1408.04" y1="1306.24" x2="1460.02" y2="1384.72" gradientUnits="userSpaceOnUse">
<stop stop-color="#FF9458"/>
<stop offset="1" stop-color="#FF5656"/>
</linearGradient>
<linearGradient id="paint11_linear" x1="1446.44" y1="1261.54" x2="1485.74" y2="1337.58" gradientUnits="userSpaceOnUse">
<stop stop-color="#FF9458"/>
<stop offset="1" stop-color="#FF5656"/>
</linearGradient>
<linearGradient id="paint12_linear" x1="1469.86" y1="1208.9" x2="1492.53" y2="1268.55" gradientUnits="userSpaceOnUse">
<stop stop-color="#FF9458"/>
<stop offset="1" stop-color="#FF5656"/>
</linearGradient>
<linearGradient id="paint13_linear" x1="1469.86" y1="1132.41" x2="1492.53" y2="1192.06" gradientUnits="userSpaceOnUse">
<stop stop-color="#FF9458"/>
<stop offset="1" stop-color="#FF5656"/>
</linearGradient>
<linearGradient id="paint14_linear" x1="1446.44" y1="1058.77" x2="1485.77" y2="1134.84" gradientUnits="userSpaceOnUse">
<stop stop-color="#FF9458"/>
<stop offset="1" stop-color="#FF5656"/>
</linearGradient>
<linearGradient id="paint15_linear" x1="1408.01" y1="1001.72" x2="1459.99" y2="1080.21" gradientUnits="userSpaceOnUse">
<stop stop-color="#FF9458"/>
<stop offset="1" stop-color="#FF5656"/>
</linearGradient>
<linearGradient id="paint16_linear" x1="1359.15" y1="968.045" x2="1416.48" y2="1034.39" gradientUnits="userSpaceOnUse">
<stop stop-color="#FF9458"/>
<stop offset="1" stop-color="#FF5656"/>
</linearGradient>
<linearGradient id="paint17_linear" x1="1296.31" y1="960.887" x2="1349.4" y2="1011.66" gradientUnits="userSpaceOnUse">
<stop stop-color="#FF9458"/>
<stop offset="1" stop-color="#FF5656"/>
</linearGradient>
<linearGradient id="paint18_linear" x1="1217.37" y1="968.045" x2="1274.7" y2="1034.39" gradientUnits="userSpaceOnUse">
<stop stop-color="#FF9458"/>
<stop offset="1" stop-color="#FF5656"/>
</linearGradient>
<linearGradient id="paint19_linear" x1="1278.98" y1="1036.9" x2="1313.45" y2="1069.94" gradientUnits="userSpaceOnUse">
<stop stop-color="#FF9458"/>
<stop offset="1" stop-color="#FF5656"/>
</linearGradient>
<linearGradient id="paint20_linear" x1="1331.3" y1="1036.9" x2="1365.77" y2="1069.97" gradientUnits="userSpaceOnUse">
<stop stop-color="#FF9458"/>
<stop offset="1" stop-color="#FF5656"/>
</linearGradient>
<linearGradient id="paint21_linear" x1="1368.09" y1="1051.21" x2="1402.37" y2="1096.53" gradientUnits="userSpaceOnUse">
<stop stop-color="#FF9458"/>
<stop offset="1" stop-color="#FF5656"/>
</linearGradient>
<linearGradient id="paint22_linear" x1="1399.25" y1="1083.01" x2="1427.52" y2="1131.38" gradientUnits="userSpaceOnUse">
<stop stop-color="#FF9458"/>
<stop offset="1" stop-color="#FF5656"/>
</linearGradient>
<linearGradient id="paint23_linear" x1="1421.05" y1="1128.45" x2="1439.89" y2="1170.83" gradientUnits="userSpaceOnUse">
<stop stop-color="#FF9458"/>
<stop offset="1" stop-color="#FF5656"/>
</linearGradient>
<linearGradient id="paint24_linear" x1="1430.8" y1="1181.92" x2="1443.07" y2="1215.67" gradientUnits="userSpaceOnUse">
<stop stop-color="#FF9458"/>
<stop offset="1" stop-color="#FF5656"/>
</linearGradient>
<linearGradient id="paint25_linear" x1="1421.08" y1="1226.04" x2="1439.89" y2="1268.41" gradientUnits="userSpaceOnUse">
<stop stop-color="#FF9458"/>
<stop offset="1" stop-color="#FF5656"/>
</linearGradient>
<linearGradient id="paint26_linear" x1="1399.25" y1="1260.88" x2="1427.57" y2="1309.23" gradientUnits="userSpaceOnUse">
<stop stop-color="#FF9458"/>
<stop offset="1" stop-color="#FF5656"/>
</linearGradient>
<linearGradient id="paint27_linear" x1="1368.09" y1="1287.93" x2="1402.36" y2="1333.22" gradientUnits="userSpaceOnUse">
<stop stop-color="#FF9458"/>
<stop offset="1" stop-color="#FF5656"/>
</linearGradient>
<linearGradient id="paint28_linear" x1="1331.24" y1="1303.95" x2="1365.67" y2="1337" gradientUnits="userSpaceOnUse">
<stop stop-color="#FF9458"/>
<stop offset="1" stop-color="#FF5656"/>
</linearGradient>
<linearGradient id="paint29_linear" x1="1278.92" y1="1303.92" x2="1313.37" y2="1336.96" gradientUnits="userSpaceOnUse">
<stop stop-color="#FF9458"/>
<stop offset="1" stop-color="#FF5656"/>
</linearGradient>
<linearGradient id="paint30_linear" x1="1228.25" y1="1287.9" x2="1262.51" y2="1333.19" gradientUnits="userSpaceOnUse">
<stop stop-color="#FF9458"/>
<stop offset="1" stop-color="#FF5656"/>
</linearGradient>
<linearGradient id="paint31_linear" x1="1188.76" y1="1260.82" x2="1217.05" y2="1309.17" gradientUnits="userSpaceOnUse">
<stop stop-color="#FF9458"/>
<stop offset="1" stop-color="#FF5656"/>
</linearGradient>
<linearGradient id="paint32_linear" x1="1165.31" y1="1225.98" x2="1184.13" y2="1268.34" gradientUnits="userSpaceOnUse">
<stop stop-color="#FF9458"/>
<stop offset="1" stop-color="#FF5656"/>
</linearGradient>
<linearGradient id="paint33_linear" x1="1160.08" y1="1181.86" x2="1172.35" y2="1215.61" gradientUnits="userSpaceOnUse">
<stop stop-color="#FF9458"/>
<stop offset="1" stop-color="#FF5656"/>
</linearGradient>
<linearGradient id="paint34_linear" x1="1165.31" y1="1128.38" x2="1184.15" y2="1170.78" gradientUnits="userSpaceOnUse">
<stop stop-color="#FF9458"/>
<stop offset="1" stop-color="#FF5656"/>
</linearGradient>
<linearGradient id="paint35_linear" x1="1188.79" y1="1083.01" x2="1217.08" y2="1131.36" gradientUnits="userSpaceOnUse">
<stop stop-color="#FF9458"/>
<stop offset="1" stop-color="#FF5656"/>
</linearGradient>
<linearGradient id="paint36_linear" x1="1228.28" y1="1051.17" x2="1262.59" y2="1096.51" gradientUnits="userSpaceOnUse">
<stop stop-color="#FF9458"/>
<stop offset="1" stop-color="#FF5656"/>
</linearGradient>
<linearGradient id="paint37_linear" x1="1312.53" y1="1082.73" x2="1336.58" y2="1099.99" gradientUnits="userSpaceOnUse">
<stop stop-color="#FF9458"/>
<stop offset="1" stop-color="#FF5656"/>
</linearGradient>
<linearGradient id="paint38_linear" x1="1342.73" y1="1087" x2="1369.24" y2="1113.4" gradientUnits="userSpaceOnUse">
<stop stop-color="#FF9458"/>
<stop offset="1" stop-color="#FF5656"/>
</linearGradient>
<linearGradient id="paint39_linear" x1="1365.87" y1="1104.11" x2="1388.83" y2="1137.82" gradientUnits="userSpaceOnUse">
<stop stop-color="#FF9458"/>
<stop offset="1" stop-color="#FF5656"/>
</linearGradient>
<linearGradient id="paint40_linear" x1="1383.58" y1="1132.42" x2="1398.91" y2="1164.73" gradientUnits="userSpaceOnUse">
<stop stop-color="#FF9458"/>
<stop offset="1" stop-color="#FF5656"/>
</linearGradient>
<linearGradient id="paint41_linear" x1="1393.88" y1="1168.32" x2="1400.78" y2="1191.45" gradientUnits="userSpaceOnUse">
<stop stop-color="#FF9458"/>
<stop offset="1" stop-color="#FF5656"/>
</linearGradient>
<linearGradient id="paint42_linear" x1="1393.81" y1="1205.29" x2="1400.71" y2="1228.41" gradientUnits="userSpaceOnUse">
<stop stop-color="#FF9458"/>
<stop offset="1" stop-color="#FF5656"/>
</linearGradient>
<linearGradient id="paint43_linear" x1="1383.52" y1="1230.39" x2="1398.91" y2="1262.79" gradientUnits="userSpaceOnUse">
<stop stop-color="#FF9458"/>
<stop offset="1" stop-color="#FF5656"/>
</linearGradient>
<linearGradient id="paint44_linear" x1="1365.74" y1="1251.34" x2="1388.74" y2="1285.11" gradientUnits="userSpaceOnUse">
<stop stop-color="#FF9458"/>
<stop offset="1" stop-color="#FF5656"/>
</linearGradient>
<linearGradient id="paint45_linear" x1="1342.67" y1="1265.71" x2="1369.26" y2="1292.11" gradientUnits="userSpaceOnUse">
<stop stop-color="#FF9458"/>
<stop offset="1" stop-color="#FF5656"/>
</linearGradient>
<linearGradient id="paint46_linear" x1="1312.44" y1="1271.57" x2="1336.56" y2="1288.81" gradientUnits="userSpaceOnUse">
<stop stop-color="#FF9458"/>
<stop offset="1" stop-color="#FF5656"/>
</linearGradient>
<linearGradient id="paint47_linear" x1="1274.09" y1="1265.71" x2="1300.66" y2="1292.12" gradientUnits="userSpaceOnUse">
<stop stop-color="#FF9458"/>
<stop offset="1" stop-color="#FF5656"/>
</linearGradient>
<linearGradient id="paint48_linear" x1="1241.19" y1="1251.34" x2="1264.16" y2="1285.1" gradientUnits="userSpaceOnUse">
<stop stop-color="#FF9458"/>
<stop offset="1" stop-color="#FF5656"/>
</linearGradient>
<linearGradient id="paint49_linear" x1="1218" y1="1230.36" x2="1233.35" y2="1262.71" gradientUnits="userSpaceOnUse">
<stop stop-color="#FF9458"/>
<stop offset="1" stop-color="#FF5656"/>
</linearGradient>
<linearGradient id="paint50_linear" x1="1207.28" y1="1205.26" x2="1214.17" y2="1228.34" gradientUnits="userSpaceOnUse">
<stop stop-color="#FF9458"/>
<stop offset="1" stop-color="#FF5656"/>
</linearGradient>
<linearGradient id="paint51_linear" x1="1207.35" y1="1168.23" x2="1214.26" y2="1191.35" gradientUnits="userSpaceOnUse">
<stop stop-color="#FF9458"/>
<stop offset="1" stop-color="#FF5656"/>
</linearGradient>
<linearGradient id="paint52_linear" x1="1218.1" y1="1132.3" x2="1233.46" y2="1164.62" gradientUnits="userSpaceOnUse">
<stop stop-color="#FF9458"/>
<stop offset="1" stop-color="#FF5656"/>
</linearGradient>
<linearGradient id="paint53_linear" x1="1241.28" y1="1104.08" x2="1264.19" y2="1137.77" gradientUnits="userSpaceOnUse">
<stop stop-color="#FF9458"/>
<stop offset="1" stop-color="#FF5656"/>
</linearGradient>
<linearGradient id="paint54_linear" x1="1274.22" y1="1086.97" x2="1300.73" y2="1113.3" gradientUnits="userSpaceOnUse">
<stop stop-color="#FF9458"/>
<stop offset="1" stop-color="#FF5656"/>
</linearGradient>
</defs>
</svg>
